<svg width="219" height="81" viewBox="0 0 219 81" fill="none" xmlns="http://www.w3.org/2000/svg">
<path fill-rule="evenodd" clip-rule="evenodd" d="M78.125 18.7461C75.9766 21.3438 75.1133 25.0704 75.168 29.4766C76.7617 29.9766 77.918 31.4649 77.918 33.2227C77.918 34.6954 77.1094 35.9766 75.9102 36.6485L75.9141 36.6641C77.25 46.1954 75.2969 51.0821 73.2852 53.1251C68.3672 53.2618 65.7852 51.2071 65.5391 46.9688C68.6563 46.1172 69.9922 44.8047 71.2109 42.9063C72.1914 41.379 72.5195 39.2969 72.6406 36.9102C71.1406 36.3555 70.0703 34.9141 70.0703 33.2227C70.0703 31.4649 71.2266 29.9766 72.8203 29.4766C73.0234 25.4883 73.7031 21.3751 76.2578 17.9297L74.9258 17.3477C74.3984 17.1172 74.1562 16.504 74.3867 15.9766C74.4961 15.7266 74.6914 15.5391 74.9258 15.4376L108.141 0.945368C108.418 0.824275 108.719 0.835994 108.973 0.945368L142.188 15.4376C142.715 15.668 142.957 16.2813 142.727 16.8086C142.617 17.0626 142.422 17.2461 142.188 17.3477L109.043 31.8907C108.766 32.0118 108.465 32.0001 108.211 31.8907L78.125 18.7461ZM133.523 23.0001V35.3204C133.523 39.5977 122.871 45.8399 109.734 45.8399C96.5938 45.8399 85.9414 39.5977 85.9414 35.3204V23.9454L108.211 34.0665C108.465 34.1797 108.766 34.1876 109.043 34.0665L133.523 23.0001Z" fill="#E3000F"/>
<path d="M95.6367 14.6954L108.625 9.37507C109.316 9.08992 110.109 9.42195 110.391 10.1134C110.48 10.3321 110.512 10.5587 110.484 10.7813H110.488L110.219 14.9454L121.926 15.2423C122.469 15.2266 122.984 15.5391 123.211 16.0665C123.504 16.754 123.184 17.5509 122.492 17.8438L108.348 23.8868C108.125 23.9923 107.68 24.004 107.418 23.9766C106.672 23.8907 106.137 23.2188 106.223 22.4727L106.977 17.5743L96.1211 17.3009C95.3711 17.2852 94.7812 16.6641 94.7969 15.9141C94.8125 15.3594 95.1562 14.8907 95.6367 14.6954ZM107.598 12.336L101.184 14.961L107.285 14.8712L107.598 12.336ZM110.047 17.2813L109.59 20.4063L117.301 17.2266L110.047 17.2813Z" fill="white"/>
<path fill-rule="evenodd" clip-rule="evenodd" d="M5.73047 74.5313H2.09375V59.3438C2.09375 59.1446 2.03125 58.9922 1.90625 58.8829C1.78125 58.7774 1.63672 58.7227 1.47266 58.7227C1.30469 58.7227 1.16406 58.7813 1.04688 58.8946C0.933594 59.0118 0.875 59.1602 0.875 59.3438V75.1524C0.875 75.5508 1.07422 75.7501 1.47266 75.7501H11.207C11.6055 75.7501 11.8047 75.5508 11.8047 75.1524V59.3438C11.8047 59.1446 11.7461 58.9922 11.6289 58.8829C11.5117 58.7774 11.3711 58.7227 11.207 58.7227C11.0391 58.7227 10.8945 58.7813 10.7695 58.8946C10.6445 59.0118 10.582 59.1602 10.582 59.3438V74.5313H6.92188V59.3438C6.92188 59.1446 6.86719 58.9922 6.75 58.8829C6.63281 58.7774 6.49219 58.7227 6.32422 58.7227C6.16016 58.7227 6.01953 58.7813 5.90234 58.8946C5.78516 59.0118 5.73047 59.1602 5.73047 59.3438V74.5313ZM17.6289 68.7813L21.3867 64.6719C21.5039 64.5547 21.5625 64.4141 21.5625 64.2501C21.5625 64.0821 21.5 63.9376 21.375 63.8126C21.25 63.6876 21.1055 63.6251 20.9414 63.6251C20.8086 63.6251 20.6562 63.6915 20.4922 63.8243L15.4648 69.379V64.1993C15.4648 64.0001 15.4023 63.8516 15.2773 63.7501C15.1523 63.6524 15.0156 63.6016 14.8672 63.6016C14.4492 63.6016 14.2422 63.8008 14.2422 64.1993V75.1524C14.2422 75.336 14.3047 75.4805 14.4297 75.5899C14.5547 75.6954 14.6992 75.7501 14.8672 75.7501C15.0312 75.7501 15.1719 75.6993 15.2891 75.6016C15.4063 75.504 15.4648 75.3516 15.4648 75.1524V71.1954L16.7812 69.7266L20.418 75.4766C20.5352 75.6602 20.6992 75.7501 20.9141 75.7501C21.082 75.7501 21.2266 75.6915 21.3516 75.5782C21.4766 75.461 21.5391 75.3204 21.5391 75.1524C21.5391 75.0391 21.5039 74.9219 21.4375 74.8047L17.6289 68.7813ZM31.2734 73.3126V66.0157C31.2734 65.6837 31.2109 65.3751 31.0859 65.0821C30.9609 64.793 30.7852 64.5352 30.5625 64.3126C30.3398 64.086 30.082 63.9141 29.7891 63.7891C29.5 63.6641 29.1797 63.6016 28.832 63.6016H26.3906C26.043 63.6016 25.7227 63.6641 25.4336 63.7891C25.1445 63.9141 24.8906 64.086 24.6758 64.3126C24.457 64.5352 24.2891 64.793 24.1641 65.0821C24.0391 65.3751 23.9766 65.6837 23.9766 66.0157V73.3126C23.9766 74.0079 24.207 74.5899 24.6602 75.0547C25.1172 75.5196 25.6953 75.7501 26.3906 75.7501H28.832C29.5273 75.7501 30.1094 75.5196 30.5742 75.0547C31.0391 74.5899 31.2734 74.0079 31.2734 73.3126ZM30.0508 73.3126C30.0508 73.6602 29.9375 73.9493 29.7031 74.1837C29.4727 74.4141 29.1797 74.5313 28.832 74.5313H26.3906C26.0586 74.5313 25.7773 74.4141 25.5469 74.1837C25.3125 73.9493 25.1992 73.6602 25.1992 73.3126V66.0157C25.1992 65.6837 25.3125 65.4024 25.5469 65.1719C25.7773 64.9376 26.0586 64.8204 26.3906 64.8204H28.832C29.1797 64.8204 29.4727 64.9376 29.7031 65.1719C29.9375 65.4024 30.0508 65.6837 30.0508 66.0157V73.3126ZM41.0078 75.1524V64.1993C41.0078 63.8008 40.7969 63.6016 40.3828 63.6016H36.75C36.418 63.6016 36.2187 63.7579 36.1523 64.0743L33.7109 75.004V75.1524C33.7109 75.336 33.7734 75.4805 33.8984 75.5899C34.0234 75.6954 34.168 75.7501 34.3359 75.7501C34.6484 75.7501 34.8398 75.5938 34.9062 75.2774L37.2227 64.8204H39.7852V75.1524C39.7852 75.336 39.8477 75.4805 39.9727 75.5899C40.0977 75.6954 40.2344 75.7501 40.3828 75.7501C40.7969 75.7501 41.0078 75.5508 41.0078 75.1524ZM49.5195 73.3126C49.5195 73.6602 49.4062 73.9493 49.1719 74.1837C48.9414 74.4141 48.6484 74.5313 48.3008 74.5313H45.8594C45.5312 74.5313 45.2461 74.4141 45.0156 74.1837C44.7812 73.9493 44.668 73.6602 44.668 73.3126V66.0157C44.668 65.6837 44.7812 65.4024 45.0156 65.1719C45.2461 64.9376 45.5312 64.8204 45.8594 64.8204H49.5195V73.3126ZM51.5625 74.5821C51.3125 74.4962 51.1133 74.336 50.9648 74.0938C50.8164 73.8555 50.7422 73.5938 50.7422 73.3126V64.1993C50.7422 63.8008 50.5352 63.6016 50.1172 63.6016H45.8594C45.5117 63.6016 45.1953 63.6641 44.9023 63.7891C44.6133 63.9141 44.3594 64.086 44.1445 64.3126C43.9258 64.5352 43.7578 64.793 43.6328 65.0821C43.5078 65.3751 43.4453 65.6837 43.4453 66.0157V73.3126C43.4453 74.0079 43.6758 74.5899 44.1328 75.0547C44.5859 75.5196 45.1641 75.7501 45.8594 75.7501H48.3008C49.0313 75.7501 49.6367 75.4766 50.1172 74.9297C50.3008 75.1446 50.4687 75.3047 50.6172 75.4024C50.8672 75.6016 51.0547 75.7188 51.1875 75.7501C51.2383 75.7696 51.3125 75.7774 51.4141 75.7774C51.5781 75.7774 51.7187 75.7149 51.8359 75.5899C51.9531 75.4649 52.0117 75.3204 52.0117 75.1524C52.0117 74.8712 51.8594 74.6797 51.5625 74.5821ZM71.4062 75.1524V59.3438C71.4062 59.129 71.3516 58.9532 71.2422 58.8204C71.1367 58.6876 71.0078 58.6212 70.8555 58.6212C70.625 58.6212 70.4336 58.754 70.2852 59.0196L65.9258 66.0665L61.5938 59.0196C61.4297 58.754 61.2383 58.6212 61.0234 58.6212C60.875 58.6212 60.7461 58.6876 60.6367 58.8204C60.5312 58.9532 60.4766 59.129 60.4766 59.3438V75.1524C60.4766 75.336 60.5352 75.4805 60.6484 75.5899C60.7656 75.6954 60.9062 75.7501 61.0742 75.7501C61.4883 75.7501 61.6953 75.5508 61.6953 75.1524V61.5118L65.4062 67.5587C65.5547 67.8087 65.7266 67.9337 65.9258 67.9337C66.125 67.9337 66.3008 67.8087 66.4492 67.5587L70.1836 61.4844V75.1524C70.1836 75.336 70.2461 75.4805 70.3711 75.5899C70.4961 75.6954 70.6406 75.7501 70.8086 75.7501C71.207 75.7501 71.4062 75.5508 71.4062 75.1524ZM81.1406 73.3126V66.0157C81.1406 65.6837 81.0781 65.3751 80.9531 65.0821C80.8281 64.793 80.6523 64.5352 80.4297 64.3126C80.207 64.086 79.9492 63.9141 79.6562 63.7891C79.3672 63.6641 79.0469 63.6016 78.6992 63.6016H76.2578C75.9102 63.6016 75.5898 63.6641 75.3008 63.7891C75.0117 63.9141 74.7578 64.086 74.543 64.3126C74.3242 64.5352 74.1562 64.793 74.0312 65.0821C73.9062 65.3751 73.8438 65.6837 73.8438 66.0157V73.3126C73.8438 74.0079 74.0742 74.5899 74.5312 75.0547C74.9844 75.5196 75.5625 75.7501 76.2578 75.7501H78.6992C79.3945 75.7501 79.9766 75.5196 80.4414 75.0547C80.9063 74.5899 81.1406 74.0079 81.1406 73.3126ZM79.918 73.3126C79.918 73.6602 79.8047 73.9493 79.5703 74.1837C79.3398 74.4141 79.0469 74.5313 78.6992 74.5313H76.2578C75.9258 74.5313 75.6445 74.4141 75.4141 74.1837C75.1797 73.9493 75.0664 73.6602 75.0664 73.3126V66.0157C75.0664 65.6837 75.1797 65.4024 75.4141 65.1719C75.6445 64.9376 75.9258 64.8204 76.2578 64.8204H78.6992C79.0469 64.8204 79.3398 64.9376 79.5703 65.1719C79.8047 65.4024 79.918 65.6837 79.918 66.0157V73.3126ZM90.25 75.7501C90.4492 75.7501 90.6055 75.6876 90.7109 75.5626C90.8203 75.4415 90.875 75.3047 90.875 75.1524C90.875 74.7383 90.668 74.5313 90.25 74.5313H85.9922C85.6602 74.5313 85.3789 74.4141 85.1484 74.1837C84.9141 73.9493 84.8008 73.6602 84.8008 73.3126V66.0157C84.8008 65.6837 84.9141 65.4024 85.1484 65.1719C85.3789 64.9376 85.6602 64.8204 85.9922 64.8204H90.25C90.4492 64.8204 90.6055 64.7579 90.7109 64.6329C90.8203 64.5118 90.875 64.3633 90.875 64.1993C90.875 63.8008 90.668 63.6016 90.25 63.6016H85.9922C85.6445 63.6016 85.3242 63.6641 85.0352 63.7891C84.7461 63.9141 84.4922 64.086 84.2773 64.3126C84.0586 64.5352 83.8906 64.793 83.7656 65.0821C83.6406 65.3751 83.5781 65.6837 83.5781 66.0157V73.3126C83.5781 74.0079 83.8086 74.5899 84.2656 75.0547C84.7188 75.5196 85.2969 75.7501 85.9922 75.7501H90.25ZM96.6992 68.7813L100.457 64.6719C100.574 64.5547 100.633 64.4141 100.633 64.2501C100.633 64.0821 100.57 63.9376 100.445 63.8126C100.32 63.6876 100.176 63.6251 100.012 63.6251C99.8789 63.6251 99.7266 63.6915 99.5625 63.8243L94.5352 69.379V64.1993C94.5352 64.0001 94.4727 63.8516 94.3477 63.7501C94.2227 63.6524 94.0859 63.6016 93.9375 63.6016C93.5195 63.6016 93.3125 63.8008 93.3125 64.1993V75.1524C93.3125 75.336 93.375 75.4805 93.5 75.5899C93.625 75.6954 93.7695 75.7501 93.9375 75.7501C94.1016 75.7501 94.2422 75.6993 94.3594 75.6016C94.4766 75.504 94.5352 75.3516 94.5352 75.1524V71.1954L95.8516 69.7266L99.4883 75.4766C99.6055 75.6602 99.7695 75.7501 99.9844 75.7501C100.152 75.7501 100.297 75.6915 100.422 75.5782C100.547 75.461 100.609 75.3204 100.609 75.1524C100.609 75.0391 100.574 74.9219 100.508 74.8047L96.6992 68.7813ZM110.344 73.3126V66.0157C110.344 65.6837 110.281 65.3751 110.156 65.0821C110.031 64.793 109.855 64.5352 109.633 64.3126C109.41 64.086 109.152 63.9141 108.859 63.7891C108.57 63.6641 108.25 63.6016 107.902 63.6016H105.461C105.113 63.6016 104.793 63.6641 104.504 63.7891C104.215 63.9141 103.961 64.086 103.746 64.3126C103.527 64.5352 103.359 64.793 103.234 65.0821C103.109 65.3751 103.047 65.6837 103.047 66.0157V73.3126C103.047 74.0079 103.277 74.5899 103.734 75.0547C104.188 75.5196 104.766 75.7501 105.461 75.7501H107.902C108.598 75.7501 109.18 75.5196 109.645 75.0547C110.109 74.5899 110.344 74.0079 110.344 73.3126ZM109.121 73.3126C109.121 73.6602 109.008 73.9493 108.773 74.1837C108.543 74.4141 108.25 74.5313 107.902 74.5313H105.461C105.129 74.5313 104.848 74.4141 104.617 74.1837C104.383 73.9493 104.27 73.6602 104.27 73.3126V66.0157C104.27 65.6837 104.383 65.4024 104.617 65.1719C104.848 64.9376 105.129 64.8204 105.461 64.8204H107.902C108.25 64.8204 108.543 64.9376 108.773 65.1719C109.008 65.4024 109.121 65.6837 109.121 66.0157V73.3126ZM114.004 63.6016V61.1602C114.004 60.7618 114.117 60.461 114.352 60.254C114.582 60.0469 114.867 59.9415 115.195 59.9415C115.547 59.9415 115.836 60.0508 116.07 60.2657C116.301 60.4805 116.418 60.7813 116.418 61.1602C116.418 61.4922 116.27 61.793 115.969 62.0587C115.688 62.3399 115.34 62.6407 114.922 62.9532C114.789 63.0704 114.648 63.1797 114.5 63.2774C114.352 63.379 114.184 63.4844 114.004 63.6016ZM118.855 73.3126C118.855 73.6446 118.738 73.9297 118.496 74.1719C118.254 74.4102 117.969 74.5313 117.637 74.5313H115.223C114.875 74.5313 114.582 74.4141 114.352 74.1837C114.117 73.9493 114.004 73.6602 114.004 73.3126V66.0157C114.004 65.6837 114.117 65.4024 114.352 65.1719C114.582 64.9376 114.875 64.8204 115.223 64.8204H117.637C117.984 64.8204 118.277 64.9376 118.508 65.1719C118.742 65.4024 118.855 65.6837 118.855 66.0157V73.3126ZM115.969 63.6016C116.051 63.5196 116.145 63.4454 116.242 63.379C116.344 63.3126 116.441 63.2383 116.543 63.1524C116.84 62.9063 117.023 62.7462 117.09 62.6797C117.305 62.4141 117.453 62.1485 117.539 61.8829C117.605 61.7344 117.637 61.4922 117.637 61.1602C117.637 60.3985 117.379 59.793 116.863 59.3438C116.418 58.9454 115.859 58.7462 115.195 58.7462C114.551 58.7462 113.996 58.9454 113.531 59.3438C113.031 59.793 112.781 60.3985 112.781 61.1602V73.3126C112.781 73.6446 112.844 73.9532 112.969 74.2462C113.094 74.5352 113.27 74.793 113.492 75.0157C113.715 75.2422 113.973 75.418 114.266 75.5508C114.555 75.6837 114.875 75.7501 115.223 75.7501H117.637C117.984 75.7501 118.305 75.6837 118.594 75.5508C118.887 75.418 119.145 75.2422 119.367 75.0157C119.59 74.793 119.766 74.5352 119.891 74.2462C120.016 73.9532 120.078 73.6446 120.078 73.3126V66.0157C120.078 65.6837 120.016 65.3751 119.891 65.0821C119.766 64.793 119.59 64.5352 119.367 64.3126C119.145 64.086 118.887 63.9141 118.594 63.7891C118.305 63.6641 117.984 63.6016 117.637 63.6016H115.969ZM129.188 75.7501C129.387 75.7501 129.543 75.6876 129.648 75.5626C129.758 75.4415 129.812 75.3047 129.812 75.1524C129.812 74.7383 129.605 74.5313 129.188 74.5313H124.934C124.602 74.5313 124.316 74.4141 124.086 74.1837C123.852 73.9493 123.738 73.6602 123.738 73.3126V66.0157C123.738 65.6837 123.852 65.4024 124.086 65.1719C124.316 64.9376 124.602 64.8204 124.934 64.8204H129.188C129.387 64.8204 129.543 64.7579 129.648 64.6329C129.758 64.5118 129.812 64.3633 129.812 64.1993C129.812 63.8008 129.605 63.6016 129.188 63.6016H124.934C124.582 63.6016 124.266 63.6641 123.973 63.7891C123.684 63.9141 123.43 64.086 123.215 64.3126C123 64.5352 122.828 64.793 122.703 65.0821C122.578 65.3751 122.516 65.6837 122.516 66.0157V73.3126C122.516 74.0079 122.746 74.5899 123.203 75.0547C123.656 75.5196 124.234 75.7501 124.934 75.7501H129.188ZM135.637 68.7813L139.398 64.6719C139.512 64.5547 139.57 64.4141 139.57 64.2501C139.57 64.0821 139.508 63.9376 139.383 63.8126C139.258 63.6876 139.113 63.6251 138.949 63.6251C138.816 63.6251 138.668 63.6915 138.5 63.8243L133.473 69.379V64.1993C133.473 64.0001 133.41 63.8516 133.285 63.7501C133.16 63.6524 133.023 63.6016 132.875 63.6016C132.457 63.6016 132.25 63.8008 132.25 64.1993V75.1524C132.25 75.336 132.312 75.4805 132.438 75.5899C132.562 75.6954 132.707 75.7501 132.875 75.7501C133.039 75.7501 133.18 75.6993 133.297 75.6016C133.414 75.504 133.473 75.3516 133.473 75.1524V71.1954L134.789 69.7266L138.426 75.4766C138.543 75.6602 138.707 75.7501 138.922 75.7501C139.09 75.7501 139.234 75.6915 139.359 75.5782C139.484 75.461 139.547 75.3204 139.547 75.1524C139.547 75.0391 139.512 74.9219 139.445 74.8047L135.637 68.7813ZM149.281 73.3126V66.0157C149.281 65.6837 149.219 65.3751 149.094 65.0821C148.969 64.793 148.793 64.5352 148.57 64.3126C148.348 64.086 148.09 63.9141 147.797 63.7891C147.508 63.6641 147.187 63.6016 146.84 63.6016H144.402C144.051 63.6016 143.734 63.6641 143.441 63.7891C143.152 63.9141 142.898 64.086 142.684 64.3126C142.469 64.5352 142.297 64.793 142.172 65.0821C142.047 65.3751 141.984 65.6837 141.984 66.0157V73.3126C141.984 74.0079 142.215 74.5899 142.672 75.0547C143.125 75.5196 143.703 75.7501 144.402 75.7501H146.84C147.539 75.7501 148.117 75.5196 148.582 75.0547C149.047 74.5899 149.281 74.0079 149.281 73.3126ZM148.059 73.3126C148.059 73.6602 147.945 73.9493 147.711 74.1837C147.48 74.4141 147.187 74.5313 146.84 74.5313H144.402C144.07 74.5313 143.785 74.4141 143.555 74.1837C143.32 73.9493 143.207 73.6602 143.207 73.3126V66.0157C143.207 65.6837 143.32 65.4024 143.555 65.1719C143.785 64.9376 144.07 64.8204 144.402 64.8204H146.84C147.187 64.8204 147.48 64.9376 147.711 65.1719C147.945 65.4024 148.059 65.6837 148.059 66.0157V73.3126ZM156.574 59.9415C156.758 59.9415 156.902 59.8829 157.012 59.7657C157.117 59.6524 157.172 59.5118 157.172 59.3438C157.172 58.9297 156.973 58.7227 156.574 58.7227H154.16C153.961 58.7227 153.812 58.7852 153.711 58.9102C153.613 59.0352 153.562 59.1797 153.562 59.3438C153.562 59.5118 153.617 59.6524 153.723 59.7657C153.832 59.8829 153.977 59.9415 154.16 59.9415H156.574ZM159.016 75.1524V64.1993C159.016 64.0001 158.953 63.8516 158.828 63.7501C158.703 63.6524 158.559 63.6016 158.391 63.6016C158.227 63.6016 158.086 63.6563 157.969 63.7618C157.852 63.8712 157.793 64.0157 157.793 64.1993V74.5313H154.16C153.813 74.5313 153.52 74.4141 153.289 74.1837C153.055 73.9493 152.941 73.6602 152.941 73.3126V64.1993C152.941 64.0001 152.879 63.8516 152.754 63.7501C152.629 63.6524 152.484 63.6016 152.316 63.6016C152.152 63.6016 152.012 63.6563 151.895 63.7618C151.777 63.8712 151.719 64.0157 151.719 64.1993V73.3126C151.719 73.6446 151.781 73.9532 151.906 74.2462C152.031 74.5352 152.207 74.793 152.43 75.0157C152.652 75.2422 152.91 75.418 153.203 75.5508C153.492 75.6837 153.813 75.7501 154.16 75.7501H158.391C158.809 75.7501 159.016 75.5508 159.016 75.1524ZM169.969 74.5313V67.2618H173.605C174.301 67.2618 174.883 67.4883 175.348 67.9454C175.813 68.4024 176.043 68.9805 176.043 69.6758V72.1172C176.043 72.8126 175.813 73.3907 175.348 73.8477C174.883 74.3047 174.301 74.5313 173.605 74.5313H169.969ZM169.969 66.043V59.9415H176.043C176.242 59.9415 176.391 59.8829 176.492 59.7657C176.59 59.6524 176.641 59.5118 176.641 59.3438C176.641 58.9297 176.441 58.7227 176.043 58.7227H169.348C168.949 58.7227 168.75 58.9297 168.75 59.3438V75.1524C168.75 75.5508 168.949 75.7501 169.348 75.7501H173.605C174.617 75.7501 175.48 75.3946 176.191 74.6797C176.906 73.9688 177.262 73.1133 177.262 72.1172V69.6758C177.262 68.6641 176.906 67.8087 176.191 67.1133C175.48 66.3985 174.617 66.043 173.605 66.043H169.969ZM186.973 75.1524V64.1993C186.973 64.0001 186.91 63.8516 186.785 63.7501C186.66 63.6524 186.516 63.6016 186.352 63.6016C186.184 63.6016 186.043 63.6563 185.926 63.7618C185.813 63.8712 185.754 64.0157 185.754 64.1993V74.5313H182.094C181.762 74.5313 181.48 74.4141 181.246 74.1837C181.016 73.9493 180.898 73.6602 180.898 73.3126V64.1993C180.898 64.0001 180.836 63.8516 180.711 63.7501C180.586 63.6524 180.441 63.6016 180.277 63.6016C180.109 63.6016 179.969 63.6563 179.852 63.7618C179.738 63.8712 179.68 64.0157 179.68 64.1993V73.3126C179.68 74.0079 179.906 74.5899 180.363 75.0547C180.82 75.5196 181.395 75.7501 182.094 75.7501H186.352C186.766 75.7501 186.973 75.5508 186.973 75.1524ZM190.633 74.5547V64.8204H194.293C194.625 64.8204 194.906 64.9376 195.141 65.1719C195.371 65.4024 195.488 65.6837 195.488 66.0157V73.3126C195.488 73.6446 195.371 73.9337 195.141 74.1837C194.906 74.4297 194.625 74.5547 194.293 74.5547H190.633ZM190.633 75.7501H194.293C194.625 75.7501 194.938 75.6876 195.227 75.5626C195.516 75.4415 195.773 75.2657 195.996 75.043C196.223 74.8165 196.395 74.5587 196.52 74.2696C196.645 73.9805 196.707 73.6602 196.707 73.3126V66.0157C196.707 65.6837 196.645 65.3751 196.52 65.0821C196.395 64.793 196.223 64.5352 195.996 64.3126C195.773 64.086 195.516 63.9141 195.227 63.7891C194.938 63.6641 194.625 63.6016 194.293 63.6016H190.012C189.613 63.6016 189.414 63.8008 189.414 64.1993V80.0079C189.414 80.2071 189.473 80.3555 189.586 80.4571C189.703 80.5547 189.844 80.6055 190.012 80.6055C190.426 80.6055 190.633 80.4063 190.633 80.0079V75.7501ZM204.574 68.6055V64.1993C204.574 64.0001 204.512 63.8516 204.387 63.7501C204.266 63.6524 204.125 63.6016 203.977 63.6016C203.563 63.6016 203.355 63.8008 203.355 64.1993V68.5547L200.293 63.8516C200.16 63.668 199.992 63.5782 199.793 63.5782C199.629 63.5782 199.48 63.6407 199.348 63.7618C199.215 63.8868 199.148 64.0352 199.148 64.1993C199.148 64.3321 199.187 64.4493 199.273 64.5469L202.609 69.6758L199.273 74.8047C199.187 74.9376 199.148 75.0547 199.148 75.1524C199.148 75.3204 199.215 75.461 199.348 75.5782C199.48 75.6915 199.629 75.7501 199.793 75.7501C200.012 75.7501 200.176 75.6602 200.293 75.4766L203.355 70.7735V75.1524C203.355 75.336 203.418 75.4805 203.543 75.5899C203.664 75.6954 203.813 75.7501 203.977 75.7501C204.145 75.7501 204.285 75.6993 204.402 75.6016C204.516 75.504 204.574 75.3516 204.574 75.1524V70.7462L207.762 75.4766C207.895 75.6602 208.051 75.7501 208.234 75.7501C208.398 75.7501 208.547 75.6915 208.672 75.5782C208.793 75.461 208.855 75.3204 208.855 75.1524C208.855 75.1016 208.852 75.0469 208.844 74.9805C208.836 74.9141 208.809 74.8555 208.758 74.8047L205.297 69.6758L208.758 64.5469C208.824 64.4297 208.855 64.3165 208.855 64.1993C208.855 64.0352 208.793 63.8907 208.672 63.7774C208.547 63.6602 208.41 63.6016 208.258 63.6016C208.043 63.6016 207.879 63.6837 207.762 63.8516L204.574 68.6055ZM218.59 75.1524V64.1993C218.59 64.0001 218.527 63.8516 218.406 63.7501C218.281 63.6524 218.137 63.6016 217.969 63.6016C217.805 63.6016 217.66 63.6563 217.547 63.7618C217.43 63.8712 217.371 64.0157 217.371 64.1993V74.5313H213.711C213.379 74.5313 213.098 74.4141 212.863 74.1837C212.633 73.9493 212.516 73.6602 212.516 73.3126V64.1993C212.516 64.0001 212.453 63.8516 212.328 63.7501C212.207 63.6524 212.059 63.6016 211.895 63.6016C211.727 63.6016 211.586 63.6563 211.473 63.7618C211.355 63.8712 211.297 64.0157 211.297 64.1993V73.3126C211.297 74.0079 211.523 74.5899 211.98 75.0547C212.437 75.5196 213.016 75.7501 213.711 75.7501H217.969C218.383 75.7501 218.59 75.5508 218.59 75.1524Z" fill="#1A1A18"/>
</svg>
