<svg width="32" height="32" viewBox="0 0 32 32" fill="none" xmlns="http://www.w3.org/2000/svg">
<path d="M17.7676 16.001L31.6336 2.13493C32.1218 1.64674 32.1218 0.855241 31.6336 0.367116C31.1455 -0.121008 30.354 -0.12107 29.8658 0.367116L15.9997 14.2332L2.13371 0.367116C1.64552 -0.12107 0.85402 -0.12107 0.365896 0.367116C-0.122228 0.855303 -0.122291 1.6468 0.365896 2.13493L14.2319 16.001L0.365896 29.8671C-0.122291 30.3552 -0.122291 31.1467 0.365896 31.6349C0.609958 31.8789 0.929895 32.0009 1.24983 32.0009C1.56977 32.0009 1.88964 31.8789 2.13377 31.6349L15.9997 17.7688L29.8658 31.6349C30.1098 31.8789 30.4298 32.0009 30.7497 32.0009C31.0696 32.0009 31.3895 31.8789 31.6336 31.6349C32.1218 31.1467 32.1218 30.3552 31.6336 29.8671L17.7676 16.001Z" fill="#C4C4C4"/>
</svg>
